<svg xmlns="http://www.w3.org/2000/svg" version="1.1" x="0" y="0" width="442.3" height="88.1" viewBox="166.5 53.2 442.3 88.1" enable-background="new 166.5 53.2 442.3 88.1" xml:space="preserve"><polygon fill="#FFFFFF" points="600.2 84.9 600.2 77.6 593 77.6 593 110 600.2 110 600.2 92.8 608.8 92.8 608.8 84.9 "/><path fill="#FFFFFF" d="M550.1 98.9c0 2.5-2.1 4.6-4.8 4.6 -2.7 0-4.8-2.1-4.8-4.6 0-0.8 0-15.1 0-15.1H533v15.3l0 0c0.1 6.4 5.6 11.6 12.3 11.6 6.8 0 12.3-5.3 12.3-11.8 0-0.1 0-0.2 0-0.3l0 0V83.8h-7.5C550.1 83.8 550.1 98.1 550.1 98.9zM577 84c7.3 0.1 13.2 5.8 13.2 12.9s-6 12.9-13.3 12.9c0 0 0 0-0.1 0l0 0h-6.7v-7.5c0 0 6.4 0 7.1 0 3.1 0 5.6-2.4 5.6-5.4s-2.5-5.4-5.6-5.4c-1.3 0-9.4 0-9.4 0v27.1h-7.1V91.5v-1.3V84H577L577 84zM468.4 89.5c0-3-2.9-5.5-6.5-5.5 -0.1 0-0.4 0-0.4 0h-18.3v7.6h12.7l-10.4 8.8c-1.4 1-2.2 2.5-2.2 4.1 0 3 2.8 5.4 6.4 5.5l0 0h18.8v-7.9h-12.4l10.2-8.5C467.5 92.6 468.4 91.2 468.4 89.5zM432.7 84.1c-4.9 0.1-8.9 3.8-9.1 8.4l0 0v17.6h7.7c0 0 0-15.2 0-16.1 0-1.4 1.2-2.5 2.7-2.5 0.9 0 6.9 0 6.9 0 0.2 0 1 0 1 0v-7.4H432.7L432.7 84.1zM404.4 84c-7.3 0.1-13.3 5.9-13.3 13 0 7.2 6 13 13.4 13 0 0 0 0 0.1 0l0 0h6.8v-7.5c0 0-6.5 0-7.1 0 -3.1 0-5.6-2.4-5.6-5.4s2.5-5.4 5.6-5.4c1.3 0 8.8 0 8.8 0v18.4h7.8V91.6v-1.3 -6.2L404.4 84 404.4 84 404.4 84zM513.8 83.9c-7.4 0.1-13.4 5.9-13.4 13.1s6.1 13.1 13.5 13.1c0 0 0 0 0.1 0l0 0h6.8v-7.6c0 0-6.5 0-7.2 0 -3.1 0-5.6-2.5-5.6-5.5s2.5-5.5 5.6-5.5c1.3 0 8.8 0 8.8 0V110h7.8V91.5v-1.3 -6.3h-16.5l0 0H513.8zM381.3 98.3c0 2.2-2.1 3.9-4.4 3.9 -2.1 0-4.5-1.6-4.7-3.5V84h-6.7c0 0 0 13.5 0 14.2 0 2.2-2.2 3.9-4.4 3.9 -2.2 0-4.6-1.7-4.6-3.8V84h-7.7v15l0 0c0.3 6.1 5.4 10.9 11.7 10.9 3 0 5.8-1.1 7.9-3 2.1 1.8 5.8 3 8.9 3 6.3 0 11.4-4.9 11.7-10.9l0 0V84h-7.7C381.3 84 381.3 97.6 381.3 98.3zM306.2 84c-7.3 0-13.2 5.9-13.2 13s5.9 13 13.2 13l0 0h0.1 0.1 11.8v-7.3 -0.1 -0.1h-0.1 -0.2 -11.7l0 0H306c-3.1 0-5.6-2.4-5.6-5.4s2.5-5.4 5.6-5.4h0.2 2.7 -0.4c1.7 0 4.5 0 9.3 0l0 0h0.3v-7.6H306V84H306.2zM282.8 84.7l-0.4-0.1 0 0c-1.1-0.3-2.1-0.5-3.2-0.5h-6.4l0 0h-1c-1.9 0-3.4-1.5-3.4-3.4 0-1.8 1.5-3.4 3.3-3.4h0.2c0.1 0 0.1 0 0.2 0l0 0h9.6 0.3 8.8v-8.1h-20l0 0c-5.9 0.4-10.4 5.3-10.4 11.5 0 4.5 2.7 8.6 6.8 10.5 0.2 0.1 0.3 0.1 0.5 0.2l0.2-0.5 -0.2 0.5c1.3 0.5 2.7 0.8 4.2 0.8h7c2.6 0 4.8 2.2 4.8 4.8 0 2.7-2.1 4.8-4.7 4.8h-11.9 -6.5v8.1h18.9l0 0c6.9-0.2 12.5-5.9 12.5-12.9C291.8 91.4 288.2 86.4 282.8 84.7zM334.8 84.2L334.8 84.2h-0.3l0 0 0 0h-6.1v-15h-7.5V110h7.5V91.4h6.4c2.5 0.2 4.5 2.2 4.5 4.8v13.9h7.5V96.6C346.8 89.9 341.4 84.4 334.8 84.2zM328.3 95.7v1V95.7v-1V95.7zM485.5 84.2L485.5 84.2h-0.3l0 0 0 0h-6.1v-15h-7.5V110h7.5V91.4h6.4c2.5 0.2 4.5 2.2 4.5 4.8v13.9h7.5V96.6C497.4 89.8 492.1 84.4 485.5 84.2zM479 95.6v1V95.6v-1V95.6z"/><path fill="#E30C19" d="M186.9 102.9h17.8c3.9 0 7.1-1.3 7.1-4.6s-3.2-4.9-7.1-4.9h-10.4c-2.1 0-4.2-0.3-6.2-1 0 0-0.5-0.2-0.7-0.3 -6.1-2.3-9.2-7.8-9.2-13.5 0-7.7 5.8-14.8 14.6-15.4l0 0h32.7c-6.3-6.2-14.9-10-24.3-10 -19.1 0-34.7 15.5-34.7 34.7 0 5.4 1.2 10.4 3.4 15H186.9zM233.1 74.4h-23.6H209h-13.3c-0.1 0-1.5 0-1.5 0 -2.7 0-4.2 2.1-4.2 4.4 0 2.4 1.5 4.3 4.3 4.3h1.5l0 0h11.8c1.6 0 3.2 0.2 4.8 0.6l0 0 0.6 0.2c8 2.2 11.1 7.2 11.1 14.3 0 8.9-8.3 16.1-18.7 16.3l0 0H179c6 5 13.7 8 22.2 8 19.1 0 34.7-15.5 34.7-34.7C235.8 83.1 234.9 78.6 233.1 74.4z"/><path fill="#FFFFFF" d="M268.2 140.9h-4.5v-13.5H260v-3.8h12v3.8h-3.7L268.2 140.9 268.2 140.9zM276.9 131L276.9 131c0.8-1.4 2.2-2.1 3.8-2.1h0.8v4c-0.6-0.3-1.1-0.4-1.8-0.4 -2.3 0-2.9 1.5-2.9 3.6v4.8h-4.2v-11.8h4.2v1.9H276.9zM295.9 135.7h-8.8c0 1.7 0.9 2.6 2.6 2.6 0.9 0 1.5-0.3 2-1.1h4c-0.7 2.8-3.3 4-6 4 -3.9 0-6.8-2.2-6.8-6.3 0-3.9 2.7-6.3 6.5-6.3 4.1 0 6.5 2.5 6.5 6.6V135.7zM292 133.3c-0.2-1.1-1.2-1.9-2.4-1.9s-2.2 0.6-2.5 1.9H292zM302.5 130.6L302.5 130.6c1-1.4 2.1-1.9 3.8-1.9 3.2 0 4.4 2 4.4 4.9v7.3h-4.2v-5.7c0-1.1 0.2-3.1-1.9-3.1 -1.7 0-2.2 1.3-2.2 2.7v6.1h-4.2v-11.8h4.2L302.5 130.6 302.5 130.6zM318.3 130.6L318.3 130.6c1-1.4 2.1-1.9 3.8-1.9 3.2 0 4.4 2 4.4 4.9v7.3h-4.2v-5.7c0-1.1 0.2-3.1-1.9-3.1 -1.7 0-2.2 1.3-2.2 2.7v6.1H314v-11.8h4.2L318.3 130.6 318.3 130.6zM337.6 132.1c-0.6-0.3-1.5-0.6-2.3-0.6 -0.5 0-1.3 0.2-1.3 0.8 0 0.8 1.3 0.9 1.9 1 2 0.4 3.4 1.3 3.4 3.5 0 3.1-2.8 4.4-5.6 4.4 -1.7 0-3.3-0.5-4.8-1.4l1.5-2.9c0.9 0.6 2.3 1.2 3.3 1.2 0.5 0 1.3-0.3 1.3-0.9 0-0.9-1.3-1-2.6-1.3 -1.3-0.3-2.6-1-2.6-3.1 0-2.9 2.6-4.2 5.2-4.2 1.3 0 2.7 0.2 3.9 0.8L337.6 132.1zM350.7 132.9c-0.6-0.5-1.4-0.8-2.2-0.8 -1.6 0-2.9 1.2-2.9 2.9s1.2 2.9 2.9 2.9c0.7 0 1.5-0.3 2.1-0.8v3.5c-0.9 0.5-1.9 0.7-2.9 0.7 -3.5 0-6.4-2.6-6.4-6.2 0-3.8 2.9-6.4 6.6-6.4 1 0 1.9 0.2 2.8 0.7V132.9L350.7 132.9zM358 121.8v8.8l0 0c1-1.3 2.1-1.9 3.8-1.9 3 0 4.4 2 4.4 5v7.2H362v-6c0-1.4-0.2-2.8-1.9-2.8s-2.2 1.4-2.2 2.8v6h-4.2v-19.1H358zM373.8 140.9h-4.2v-19.1h4.2V140.9zM389.2 135.7h-8.8c0 1.7 0.9 2.6 2.6 2.6 0.9 0 1.5-0.3 2-1.1h4c-0.7 2.8-3.3 4-6 4 -3.9 0-6.8-2.2-6.8-6.3 0-3.9 2.7-6.3 6.5-6.3 4.1 0 6.5 2.5 6.5 6.6V135.7zM385.3 133.3c-0.2-1.1-1.2-1.9-2.4-1.9 -1.2 0-2.2 0.6-2.5 1.9H385.3zM396.1 124.6c0 1.3-1.1 2.3-2.3 2.3 -1.2 0-2.3-1.1-2.3-2.3 0-1.3 1.1-2.3 2.3-2.3C395 122.3 396.1 123.3 396.1 124.6zM395.9 140.9h-4.2v-11.8h4.2V140.9zM403.8 140.9h-4.2v-8.3h-1.5v-3.4h1.5v-1.5c0-1.6 0-2.8 1.2-4.1 1-1.2 2.5-1.9 4.1-1.9 0.6 0 1.2 0.1 1.8 0.4v3.6c-0.5-0.2-0.9-0.4-1.5-0.4 -1.1 0-1.4 0.6-1.4 2v1.9h2.9v3.4h-2.9V140.9zM416.4 132.1c-0.6-0.3-1.5-0.6-2.3-0.6 -0.5 0-1.3 0.2-1.3 0.8 0 0.8 1.3 0.9 1.9 1 2 0.4 3.4 1.3 3.4 3.5 0 3.1-2.8 4.4-5.6 4.4 -1.7 0-3.3-0.5-4.8-1.4l1.5-2.9c0.9 0.6 2.3 1.2 3.3 1.2 0.5 0 1.3-0.3 1.3-0.9 0-0.9-1.3-1-2.6-1.3 -1.3-0.3-2.6-1-2.6-3.1 0-2.9 2.6-4.2 5.2-4.2 1.3 0 2.7 0.2 3.9 0.8L416.4 132.1zM429.5 132.9c-0.6-0.5-1.4-0.8-2.2-0.8 -1.6 0-2.9 1.2-2.9 2.9s1.2 2.9 2.9 2.9c0.7 0 1.5-0.3 2.1-0.8v3.5c-0.9 0.5-1.9 0.7-2.9 0.7 -3.5 0-6.4-2.6-6.4-6.2 0-3.8 2.9-6.4 6.6-6.4 1 0 1.9 0.2 2.8 0.7V132.9zM436.8 121.8v8.8l0 0c1-1.3 2.1-1.9 3.8-1.9 3 0 4.4 2 4.4 5v7.2h-4.2v-6c0-1.4-0.2-2.8-1.9-2.8 -1.7 0-2.2 1.4-2.2 2.8v6h-4.2v-19.1H436.8zM460.5 135.7h-8.8c0 1.7 0.9 2.6 2.6 2.6 0.9 0 1.5-0.3 2-1.1h4c-0.7 2.8-3.3 4-6 4 -3.9 0-6.8-2.2-6.8-6.3 0-3.9 2.7-6.3 6.5-6.3 4.1 0 6.5 2.5 6.5 6.6L460.5 135.7 460.5 135.7zM456.6 133.3c-0.2-1.1-1.2-1.9-2.4-1.9 -1.2 0-2.2 0.6-2.5 1.9H456.6zM467.4 124.6c0 1.3-1.1 2.3-2.3 2.3 -1.3 0-2.3-1.1-2.3-2.3 0-1.3 1.1-2.3 2.3-2.3C466.4 122.2 467.4 123.3 467.4 124.6zM467.2 140.9H463v-11.8h4.2V140.9zM470.4 121.8h4.2v8.4c0.9-1 2.3-1.5 3.7-1.5 3.5 0 5.9 2.9 5.9 6.3 0 3.4-2.4 6.3-6 6.3 -1.4 0-2.8-0.5-3.6-1.7l0 0v1.3h-4.2V121.8zM474.4 135c0 1.5 1 2.6 2.7 2.6s2.7-1.1 2.7-2.6c0-1.4-1-2.7-2.7-2.7S474.4 133.6 474.4 135zM498.8 135.7H490c0 1.7 0.9 2.6 2.6 2.6 0.9 0 1.5-0.3 2-1.1h4c-0.7 2.8-3.3 4-6 4 -3.9 0-6.8-2.2-6.8-6.3 0-3.9 2.7-6.3 6.5-6.3 4.1 0 6.5 2.5 6.5 6.6L498.8 135.7 498.8 135.7zM495 133.3c-0.2-1.1-1.2-1.9-2.4-1.9 -1.2 0-2.2 0.6-2.5 1.9H495zM505.5 130.6L505.5 130.6c1-1.4 2.1-1.9 3.8-1.9 3.2 0 4.4 2 4.4 4.9v7.3h-4.2v-5.7c0-1.1 0.2-3.1-1.9-3.1 -1.7 0-2.2 1.3-2.2 2.7v6.1h-4.2v-11.8h4.2v1.5H505.5z"/></svg>